<?xml version="1.0" encoding="UTF-8" standalone="no"?>
<svg
   xmlns:dc="http://purl.org/dc/elements/1.1/"
   xmlns:cc="http://creativecommons.org/ns#"
   xmlns:rdf="http://www.w3.org/1999/02/22-rdf-syntax-ns#"
   xmlns:svg="http://www.w3.org/2000/svg"
   xmlns="http://www.w3.org/2000/svg"
   id="svg8"
   version="1.1"
   viewBox="0 0 33.866666 33.866667"
   height="128"
   width="128">
  <defs
     id="defs2" />
  <metadata
     id="metadata5">
    <rdf:RDF>
      <cc:Work
         rdf:about="">
        <dc:format>image/svg+xml</dc:format>
        <dc:type
           rdf:resource="http://purl.org/dc/dcmitype/StillImage" />
        <dc:title></dc:title>
      </cc:Work>
    </rdf:RDF>
  </metadata>
  <g
     transform="translate(0,-263.13331)"
     id="layer1">
    <g
       id="flowRoot5159"
       style="font-style:normal;font-weight:normal;font-size:40px;line-height:1.25;font-family:sans-serif;letter-spacing:0px;word-spacing:0px;fill:#ffffff;fill-opacity:1;stroke:none"
       transform="matrix(0.5096214,0,0,0.5096214,-3.0563672,256.21345)"
       aria-label="?">
      <path
         id="path5167"
         style="font-style:normal;font-variant:normal;font-weight:normal;font-stretch:normal;font-family:'Book Antiqua';-inkscape-font-specification:'Book Antiqua';fill:#ffffff"
         d="m 32.212891,38.612353 1.523437,-4.648437 q 1.191406,-0.722656 2.441406,-1.074219 1.269532,-0.371094 2.597657,-0.371094 3.4375,0 5.449218,1.816407 2.011719,1.816406 2.011719,4.648437 0,1.152344 -0.371094,2.207031 -0.351562,1.054688 -1.074218,1.972657 -0.703125,0.917968 -3.046875,3.085937 -1.972657,1.816406 -2.402344,2.34375 -0.722656,0.859375 -1.015625,1.601563 -0.214844,0.507812 -0.214844,1.054687 0,0.9375 0.898438,2.011719 l -0.839844,0.625 q -0.996094,-0.742188 -1.386719,-1.484375 -0.390625,-0.742188 -0.390625,-1.679688 0,-0.9375 0.449219,-1.875 0.449219,-0.9375 2.1875,-2.949218 2.304687,-2.636719 2.910156,-3.867188 0.605469,-1.230469 0.605469,-2.363281 0,-1.855469 -1.386719,-3.125 -1.386719,-1.289063 -3.535156,-1.289063 -0.605469,0 -1.25,0.175782 -0.625,0.15625 -1.308594,0.488281 -1.054687,1.484375 -1.738281,3.066406 l -0.996094,-0.136719 z m 6.09375,17.910157 q 0.957031,0 1.621093,0.683593 0.664063,0.664063 0.664063,1.601563 0,0.9375 -0.664063,1.621094 -0.664062,0.664062 -1.621093,0.664062 -0.9375,0 -1.601563,-0.664062 -0.664062,-0.683594 -0.664062,-1.621094 0,-0.9375 0.664062,-1.601563 0.664063,-0.683593 1.601563,-0.683593 z" />
    </g>
  </g>
</svg>
